<?xml version="1.0" encoding="UTF-8"?>
<svg width="130px" height="44px" viewBox="0 0 130 44" version="1.1" xmlns="http://www.w3.org/2000/svg" xmlns:xlink="http://www.w3.org/1999/xlink">
    <title>Artboard 3</title>
    <g id="Artboard" stroke="none" stroke-width="1" fill="none" fill-rule="evenodd">
        <g id="61f85d700f85a4316af3ef26_creatorled-logo" transform="translate(8.000000, 11.000000)" fill="#000000">
            <path d="M34.3706415,15.862069 C37.5724134,15.862069 39.4927586,14.3853516 39.4927586,11.9162691 L39.4927586,11.6824439 L36.5049168,11.6824439 L36.5049168,11.916965 C36.5049168,12.9650029 35.9923461,13.3783724 34.4129968,13.3783724 C32.4782938,13.3783724 31.9520834,12.9371665 31.9520834,11.1027524 C31.9520834,9.26833819 32.4782938,8.82713235 34.4129968,8.82713235 C35.9923461,8.82713235 36.5049168,9.24119777 36.5049168,10.2892356 L36.5049168,10.5237567 L39.4927586,10.5237567 L39.4927586,10.2892356 C39.4927586,7.8201531 37.5716955,6.34482759 34.3706415,6.34482759 C31.0554437,6.34482759 29.106383,8.22030035 29.106383,11.1027524 C29.106383,13.9859003 31.0554437,15.8613731 34.3706415,15.8613731 L34.3706415,15.862069 Z M42.8725662,15.7228873 L42.8725662,11.5717945 C42.8725662,11.0199393 43.0857784,10.8132545 43.8115612,10.8132545 C44.5079107,10.8132545 44.7361985,11.0199393 44.7361985,11.5996309 L44.7361985,12.4138435 L47.411042,12.4138435 L47.411042,11.0338574 C47.411042,9.64134502 46.7850453,8.63436577 45.2056959,8.63436577 C43.7828458,8.63436577 43.0427052,9.44857843 42.8438508,10.5926516 L42.7017093,10.5926516 L42.7017093,8.7721556 L40.1970048,8.7721556 L40.1970048,15.7235832 L42.8725662,15.7235832 L42.8725662,15.7228873 Z M51.9760795,15.862069 C54.3953555,15.862069 55.917274,14.7715807 55.917274,13.2273603 L55.917274,13.0617341 L53.2424305,13.0617341 L53.2424305,13.2134421 C53.2424305,13.6268116 52.9581476,13.806356 51.8770112,13.806356 C50.7384439,13.806356 50.3550927,13.5718349 50.3120196,12.7304818 L55.9316317,12.7304818 C55.9603471,12.4820425 55.9747049,12.3031941 55.9747049,12.068673 C55.9747049,9.83411161 54.3953555,8.63436577 51.9193665,8.63436577 C49.5288059,8.63436577 47.8360305,9.98581961 47.8360305,12.2475215 C47.8360305,14.8543938 49.5431636,15.8613731 51.9760795,15.8613731 L51.9760795,15.862069 Z M51.8626535,10.6204879 C52.8583614,10.6204879 53.2855036,10.8271727 53.3845719,11.4207824 L50.3550927,11.4207824 C50.4685187,10.8271727 50.8805853,10.6204879 51.8626535,10.6204879 L51.8626535,10.6204879 Z M59.0092093,15.862069 C60.5598432,15.862069 61.442843,15.2406229 61.7127682,14.26148 L61.8549096,14.26148 L61.8549096,15.7228873 L64.3588963,15.7228873 L64.3588963,11.765257 C64.3588963,9.82019344 63.1499761,8.63366986 60.6459895,8.63366986 C58.2123557,8.63366986 56.6186487,9.82019344 56.6186487,11.6685258 L56.6186487,11.6963621 L59.29421,11.6963621 L59.29421,11.6406895 C59.29421,11.0616938 59.5641352,10.8960676 60.4464172,10.8960676 C61.3997699,10.8960676 61.7127682,11.006717 61.7127682,11.7102803 L61.7127682,11.8480701 L58.7959971,12.1236498 C57.1735746,12.2753578 56.4772251,12.978921 56.4772251,13.958064 C56.4772251,15.1438916 57.3875046,15.8613731 59.0092093,15.8613731 L59.0092093,15.862069 Z M59.1657084,13.7924378 C59.1657084,13.6407298 59.2654946,13.5579167 59.5074222,13.5307763 L61.6984105,13.282337 C61.6273398,13.9030872 61.1011293,14.0547952 59.8060628,14.0547952 C59.3932783,14.0547952 59.1657084,14.0130407 59.1657084,13.7924378 L59.1657084,13.7924378 Z M70.5162051,15.7228873 L70.5162051,13.3922905 L69.2354963,13.3922905 C68.6238574,13.3922905 68.4530005,13.2545007 68.4530005,12.7033414 L68.4530005,10.8960676 L70.5162051,10.8960676 L70.5162051,8.7721556 L68.4530005,8.7721556 L68.4530005,7.57240976 L65.778157,7.57240976 L65.778157,8.7721556 L64.7250181,8.7721556 L64.7250181,10.8960676 L65.778157,10.8960676 L65.778157,13.0756523 C65.778157,14.8822301 66.8449357,15.7235832 68.6382151,15.7235832 L70.5162051,15.7235832 L70.5162051,15.7228873 Z M75.1243157,15.862069 C77.6139446,15.862069 79.3074379,14.496001 79.3074379,12.2475215 C79.3074379,9.98581961 77.6139446,8.63436577 75.1243157,8.63436577 C72.633969,8.63436577 70.9411936,9.98581961 70.9411936,12.2475215 C70.9411936,14.496001 72.633969,15.8613731 75.1243157,15.8613731 L75.1243157,15.862069 Z M75.1243157,13.5725308 C73.9146777,13.5725308 73.5873217,13.2545007 73.5873217,12.2475215 C73.5873217,11.2412381 73.9146777,10.9099858 75.1243157,10.9099858 C76.3332359,10.9099858 76.6605919,11.2412381 76.6605919,12.2475215 C76.6605919,13.2545007 76.3332359,13.5718349 75.1243157,13.5718349 L75.1243157,13.5725308 Z M82.6247894,15.7228873 L82.6247894,11.5717945 C82.6247894,11.0199393 82.8380015,10.8132545 83.5637844,10.8132545 C84.2608517,10.8132545 84.4884216,11.0199393 84.4884216,11.5996309 L84.4884216,12.4138435 L87.1632651,12.4138435 L87.1632651,11.0338574 C87.1632651,9.64134502 86.5372685,8.63436577 84.9579191,8.63436577 C83.5350689,8.63436577 82.7956463,9.44857843 82.5960739,10.5926516 L82.4539325,10.5926516 L82.4539325,8.7721556 L79.9499459,8.7721556 L79.9499459,15.7235832 L82.6247894,15.7235832 L82.6247894,15.7228873 Z M95.9121426,15.7228873 L95.9121426,13.3922905 L90.4052386,13.3922905 L90.4052386,6.48192151 L87.7303951,6.48192151 L87.7303951,15.7235832 L95.9121426,15.7235832 L95.9121426,15.7228873 Z M100.621475,15.862069 C103.040033,15.862069 104.56267,14.7715807 104.56267,13.2273603 L104.56267,13.0617341 L101.887826,13.0617341 L101.887826,13.2134421 C101.887826,13.6268116 101.602825,13.806356 100.521689,13.806356 C99.3838396,13.806356 98.9990527,13.5718349 98.9566974,12.7304818 L104.577027,12.7304818 C104.605025,12.4820425 104.619383,12.3031941 104.619383,12.068673 C104.619383,9.83411161 103.040033,8.63436577 100.564762,8.63436577 C98.1742016,8.63436577 96.4807084,9.98581961 96.4807084,12.2475215 C96.4807084,14.8543938 98.1885593,15.8613731 100.621475,15.8613731 L100.621475,15.862069 Z M100.507331,10.6204879 C101.503757,10.6204879 101.930182,10.8271727 102.029968,11.4207824 L98.9990527,11.4207824 C99.1131966,10.8271727 99.5259811,10.6204879 100.507331,10.6204879 L100.507331,10.6204879 Z M108.5936,15.862069 C110.272018,15.862069 111.126302,15.2267047 111.353872,13.8474145 L111.496013,13.8474145 L111.496013,15.7235832 L114,15.7235832 L114,6.48122561 L111.325157,6.48122561 L111.325157,10.5641194 L111.183015,10.5641194 C110.969803,9.40612803 110.172949,8.63366986 108.479456,8.63366986 C106.373896,8.63366986 105.192974,9.9851237 105.192974,12.2468255 C105.192974,14.4953051 106.401894,15.8606771 108.5936,15.8606771 L108.5936,15.862069 Z M107.896533,12.2475215 C107.896533,11.3233553 108.322957,10.9927989 109.560593,10.9927989 C110.755873,10.9927989 111.325157,11.1855655 111.325157,12.1647084 L111.325157,12.2621355 C111.325157,13.2684189 110.755873,13.4890218 109.560593,13.4890218 C108.322957,13.4890218 107.896533,13.1716876 107.896533,12.2475215 Z" id="Shape" fill-rule="nonzero"></path>
            <path d="M10.8005749,2.3187437 C9.66913377,2.3187437 8.76312213,3.21170223 8.76312213,4.2984159 L8.76312213,6.27808809 L19.0455671,6.27808809 C20.1777238,6.27808809 21.0830198,5.38442756 21.0830198,4.2984159 C21.0830198,3.21170223 20.1777238,2.3187437 19.0455671,2.3187437 L10.8012905,2.3187437 L10.8005749,2.3187437 Z M8.76312213,8.59683179 L19.0455671,8.59683179 C21.4694703,8.59683179 23.4468085,6.67893661 23.4468085,4.2984159 C23.4468085,1.91789519 21.4694703,0 19.0455671,0 L10.8012905,0 C8.37667166,0 6.4000491,1.91789519 6.4000491,4.2984159 L6.4000491,6.27808809 L4.40124141,6.27808809 C1.97733821,6.27738608 0,8.19457925 0,10.5751 L0,17.7770351 C0,20.6686201 2.40243373,23 5.350192,23 L19.0455671,23 C21.4694703,23 23.4468085,21.0821048 23.4468085,18.7015841 C23.4468085,16.3210634 21.4694703,14.4031682 19.0455671,14.4031682 L11.7509567,14.4031682 C10.0942293,14.4031682 8.76383777,13.096023 8.76383777,11.499649 L8.76383777,8.59542777 L8.76312213,8.59683179 Z M6.39933345,8.59683179 L4.40124141,8.59683179 C3.26908468,8.59683179 2.36378868,9.4890883 2.36378868,10.575802 L2.36378868,17.7777371 C2.36378868,19.374111 3.69418019,20.6812563 5.350192,20.6812563 L19.0455671,20.6812563 C20.1777238,20.6812563 21.0830198,19.7882978 21.0830198,18.7015841 C21.0830198,17.6155724 20.1777238,16.7226139 19.0455671,16.7226139 L11.7509567,16.7226139 C8.80248282,16.7226139 6.4000491,14.391936 6.4000491,11.499649 L6.4000491,8.59612978 L6.39933345,8.59683179 Z" id="Shape"></path>
        </g>
    </g>
</svg>