<?xml version="1.0" encoding="UTF-8"?>
<svg width="1893px" height="182px" viewBox="0 0 1893 182" version="1.1" xmlns="http://www.w3.org/2000/svg" xmlns:xlink="http://www.w3.org/1999/xlink">
    <title>MT Full Logo - Black</title>
    <defs>
        <polygon id="path-1" points="0 0 442 0 442 166 0 166"></polygon>
    </defs>
    <g id="MT-Full-Logo---Black" stroke="none" stroke-width="1" fill="none" fill-rule="evenodd">
        <g id="MT-Full-Logo-Color">
            <path d="M1075.28525,177 C1047.65105,177 1025.16907,154.54053 1025.16907,126.938451 L1025.16907,126.458415 C1025.16907,115.021998 1029.0666,104.50565 1035.55358,96.0650143 C1028.96427,87.5888203 1025,76.9835769 1025,65.4449299 C1025,37.8428507 1047.48198,15.383381 1075.11618,15.383381 L1101.05077,15.383381 L1101.05077,0 L1147.3228,0 L1147.3228,54.5018834 L1082.67988,54.5018834 C1076.63337,54.5018834 1071.72141,59.4089197 1071.72141,65.4449299 C1071.72141,71.485385 1076.63337,76.3924213 1082.67988,76.3924213 L1186,76.3924213 L1186,115.510924 L1164.91508,115.510924 L1164.91508,177 L1075.28525,177 Z M1082.84895,115.510924 C1076.80244,115.510924 1071.89048,120.422405 1071.89048,126.458415 L1071.89048,126.938451 C1071.89048,132.974461 1076.80244,137.881498 1082.84895,137.881498 L1118.64304,137.881498 L1118.64304,115.510924 L1082.84895,115.510924" id="Fill-1" fill="#0B0A1F"></path>
            <g id="Group-5" transform="translate(0.000000, 16.000000)">
                <mask id="mask-2" fill="white">
                    <use xlink:href="#path-1"></use>
                </mask>
                <g id="Clip-3"></g>
                <path d="M349.392524,68.016506 L349.392524,107.209904 L392.470328,107.209904 C389.000765,116.888545 378.342661,126.806602 362.130584,126.806602 C339.202076,126.806602 326.232414,107.666569 326.232414,83.0022168 C326.232414,58.3334313 339.202076,39.1978313 360.972579,39.1978313 C373.94224,39.1978313 383.669486,47.728159 388.074361,57.8678988 L438.331799,57.8678988 C432.078569,27.6659277 404.054837,0 360.972579,0 C312.104747,0 277.59173,35.965706 277.59173,83.0022168 C277.59173,130.034294 312.104747,166 360.972579,166 C407.528853,166 449.448652,127.037152 440.879411,68.016506 L349.392524,68.016506" id="Fill-2" fill="#0B0A1F" mask="url(#mask-2)"></path>
                <polyline id="Fill-4" fill="#0B0A1F" mask="url(#mask-2)" points="88.8991902 65.1745413 43.7369764 2.23898934 -0.267232035 2.23898934 -0.267232035 163.623568 46.0529873 163.623568 46.0529873 79.2424882 88.2043869 138.032585 130.355787 79.2424882 130.355787 163.623568 176.676006 163.623568 176.676006 2.23898934 133.829803 2.23898934 88.8991902 65.1745413"></polyline>
            </g>
            <polygon id="Fill-6" fill="#0B0A1F" points="208 177 255 177 255 16 208 16"></polygon>
            <polygon id="Fill-7" fill="#0B0A1F" points="513.757976 76.9455769 513.757976 16 468 16 468 177 513.757976 177 513.757976 116.054423 573.242024 116.054423 573.242024 177 619 177 619 16 573.242024 16 573.242024 76.9455769"></polygon>
            <polyline id="Fill-8" fill="#0B0A1F" points="639 55.0955769 688.453074 55.0955769 688.453074 177 735.546926 177 735.546926 55.0955769 785 55.0955769 785 16 639 16 639 55.0955769"></polyline>
            <polyline id="Fill-9" fill="#0B0A1F" points="882.1603 81.3155769 850.485448 16 795 16 857.882915 124.56 857.882915 177 904.117085 177 904.117085 124.56 967 16 913.599535 16 882.1603 81.3155769"></polyline>
            <polyline id="Fill-10" fill="#0B0A1F" points="1253 55.0955769 1302.45008 55.0955769 1302.45008 177 1349.54992 177 1349.54992 55.0955769 1399 55.0955769 1399 16 1253 16 1253 55.0955769"></polyline>
            <path d="M1560.42347,71.89 C1560.42347,40.1411538 1536.39671,16 1500.92863,16 L1419,16 L1419,177 L1464.76967,177 L1464.76967,55.0955769 L1494.52149,55.0955769 C1505.72958,55.0955769 1512.36554,62.2255769 1512.36554,71.89 C1512.36554,81.3155769 1505.72958,88.45 1494.52149,88.45 L1481.42558,88.45 L1481.42558,122.569615 L1510.76816,177 L1565,177 L1532.27783,120.19 C1549.66864,110.534423 1560.42347,92.82 1560.42347,71.89" id="Fill-11" fill="#0B0A1F"></path>
            <path d="M1691.24509,109.053521 C1691.24509,130.325081 1679.34441,142.253521 1661.5,142.253521 C1643.65559,142.253521 1631.75491,130.325081 1631.75491,109.053521 L1631.75491,16 L1586,16 L1586,109.287324 C1586,151.839437 1617.57529,182 1661.5,182 C1705.42471,182 1737,151.839437 1737,109.287324 L1737,16 L1691.24509,16 L1691.24509,109.053521" id="Fill-12" fill="#0B0A1F"></path>
            <g id="Group-16" transform="translate(1763.000000, 16.000000)" fill="#0A0B09">
                <polyline id="Fill-13" points="130 39.0955769 130 0 0 0 0 161 130 161 130 121.9 47.4481524 121.9 47.4481524 100.054423 118.139102 100.054423 118.139102 60.9455769 47.4481524 60.9455769 47.4481524 39.0955769 130 39.0955769"></polyline>
            </g>
        </g>
    </g>
</svg>