<?xml version="1.0" encoding="UTF-8"?>
<svg width="24px" height="24px" viewBox="0 0 24 24" version="1.1" xmlns="http://www.w3.org/2000/svg" xmlns:xlink="http://www.w3.org/1999/xlink">
    <title>audiences</title>
    <g id="audiences" stroke="none" stroke-width="1" fill="none" fill-rule="evenodd">
        <g id="􀉬" transform="translate(0.300000, 4.000000)" fill="#111111" fill-rule="nonzero">
            <path d="M10.835762,15.4484177 L21.4867401,15.4484177 C22.1892929,15.4484177 22.6812045,15.3446325 22.9624748,15.1370621 C23.2437452,14.9294917 23.3843803,14.6293513 23.3843803,14.2366409 C23.3843803,13.690834 23.2164415,13.1144746 22.8805637,12.5075626 C22.544686,11.9006507 22.0627658,11.3324356 21.434803,10.8029175 C20.8068403,10.2733994 20.0483894,9.84306018 19.1594505,9.51189995 C18.2705116,9.18073972 17.2711118,9.01515961 16.1612511,9.01515961 C15.0561078,9.01515961 14.0590668,9.18073972 13.1701279,9.51189995 C12.281189,9.84306018 11.521581,10.2733994 10.891304,10.8029175 C10.261027,11.3324356 9.77910678,11.9006507 9.44554329,12.5075626 C9.1119798,13.1144746 8.94519806,13.690834 8.94519806,14.2366409 C8.94519806,14.6293513 9.08467611,14.9294917 9.3636322,15.1370621 C9.6425883,15.3446325 10.1332982,15.4484177 10.835762,15.4484177 Z M16.1683273,7.49816895 C16.7893473,7.49816895 17.360878,7.33023008 17.8829193,6.99435234 C18.4049606,6.6584746 18.82315,6.20414734 19.1374874,5.63137054 C19.4518248,5.05859375 19.6089935,4.41509883 19.6089935,3.70088577 C19.6089935,3.00340652 19.4515578,2.37459819 19.1366863,1.81446075 C18.8218149,1.25432332 18.4033585,0.81187884 17.8813171,0.487127304 C17.3592758,0.162375768 16.7882792,0 16.1683273,0 C15.5493546,0 14.9783134,0.16471227 14.455204,0.49413681 C13.9320946,0.823561351 13.512214,1.26947721 13.1955624,1.83188438 C12.8789107,2.39429156 12.7205849,3.02249908 12.7205849,3.71650696 C12.721564,4.42493439 12.8789775,5.06437937 13.1928253,5.63484192 C13.5066732,6.20530446 13.9246178,6.6584746 14.4466591,6.99435234 C14.9687004,7.33023008 15.5425898,7.49816895 16.1683273,7.49816895 Z M1.5776062,15.4498863 L7.98015594,15.4498863 C7.75273641,15.1209958 7.63924917,14.7276402 7.63969421,14.2698193 C7.64013926,13.8119984 7.73611387,13.3298333 7.92761803,12.8233242 C8.11912219,12.3168151 8.39109103,11.823101 8.74352455,11.3421822 C9.09595807,10.8612633 9.5128123,10.4309018 9.99408722,10.0510979 C9.52295939,9.74570592 8.98069064,9.49269613 8.36728096,9.29206848 C7.75387128,9.09144084 7.06041972,8.99112701 6.28692627,8.99112701 C5.33256531,8.99112701 4.46917216,9.14738337 3.69674683,9.45989609 C2.92432149,9.7724088 2.26295789,10.1832994 1.71265602,10.6925678 C1.16235415,11.2018363 0.739336014,11.7567889 0.443601608,12.3574257 C0.147867203,12.9580625 0,13.5488637 0,14.1298294 C0,14.5480855 0.119272868,14.872659 0.357818604,15.10355 C0.596364339,15.3344409 1.00296021,15.4498863 1.5776062,15.4498863 Z M6.28692627,7.69309998 C6.83184306,7.69309998 7.33114243,7.54654566 7.78482437,7.25343704 C8.23850632,6.96032842 8.60233307,6.56350136 8.87630463,6.06295586 C9.15027618,5.56241035 9.28726196,5.0034523 9.28726196,4.3860817 C9.28726196,3.77396266 9.15000916,3.22488467 8.87550354,2.73884773 C8.60099792,2.2528108 8.23547999,1.86877886 7.77894974,1.58675194 C7.32241948,1.30472501 6.82507833,1.16371155 6.28692627,1.16371155 C5.75340271,1.16371155 5.2583758,1.30703926 4.80184555,1.59369469 C4.3453153,1.88035011 3.97775014,2.26787567 3.69915009,2.75627136 C3.42055003,3.24466705 3.28356425,3.79261017 3.28819275,4.40010071 C3.28926086,5.0127538 3.42651367,5.56819598 3.69995117,6.06642723 C3.97338867,6.56465848 4.33810552,6.96032842 4.79410172,7.25343704 C5.25009791,7.54654566 5.7477061,7.69309998 6.28692627,7.69309998 Z" id="Shape"></path>
        </g>
    </g>
</svg>