<?xml version="1.0" encoding="UTF-8"?>
<svg width="24px" height="24px" viewBox="0 0 24 24" version="1.1" xmlns="http://www.w3.org/2000/svg" xmlns:xlink="http://www.w3.org/1999/xlink">
    <title>automation</title>
    <g id="automation" stroke="none" stroke-width="1" fill="none" fill-rule="evenodd">
        <g id="ô€˜" transform="translate(4.233031, 1.884705)" fill="#111111" fill-rule="nonzero">
            <path d="M2.17103577,6.24092102 C2.17103577,8.15263367 3.27616882,9.40383911 5.48643494,9.99453735 L9.92340088,11.1991882 C11.3410034,11.5882874 12.0498047,12.2985992 12.0498047,13.3301239 L12.0498047,14.0517883 L13.7452698,14.0517883 L13.7452698,13.3301239 C13.7452698,11.4184113 12.6401367,10.1701355 10.4298706,9.58529663 L5.99125671,8.37913513 C4.57475281,7.99479675 3.86650085,7.28205872 3.86650085,6.24092102 L3.86650085,5.52818298 L2.17103577,5.52818298 L2.17103577,6.24092102 Z M5.64889526,0.408554077 C5.47842407,0.2368927 5.27648163,0.12588501 5.04306793,0.0755310059 C4.80965424,0.025177002 4.54206848,0 4.24031067,0 L1.8012085,0 C1.50531006,0 1.24037933,0.025177002 1.00641632,0.0755310059 C0.772453308,0.12588501 0.570236206,0.2368927 0.399765015,0.408554077 C0.229293823,0.580123901 0.120048523,0.78087616 0.0720291138,1.01081085 C0.0240097046,1.24074554 0,1.50471497 0,1.80271912 L0,4.24182129 C0,4.5435791 0.0240097046,4.81116486 0.0720291138,5.04457855 C0.120048523,5.27799225 0.229293823,5.47755432 0.399765015,5.64326477 C0.571334839,5.81382751 0.773826599,5.92456055 1.0072403,5.97546387 C1.24065399,6.02636719 1.50769043,6.05181885 1.80834961,6.05181885 L4.24031067,6.05181885 C4.54206848,6.05181885 4.80965424,6.02636719 5.04306793,5.97546387 C5.27648163,5.92456055 5.47842407,5.81382751 5.64889526,5.64326477 C5.81570435,5.47755432 5.92430878,5.27799225 5.97470856,5.04457855 C6.02510834,4.81116486 6.05030823,4.5435791 6.05030823,4.24182129 L6.05030823,1.80986023 C6.05030823,1.50709534 6.02510834,1.24047089 5.97470856,1.00998688 C5.92430878,0.779502869 5.81570435,0.579025269 5.64889526,0.408554077 Z M15.5084381,13.920639 C15.3379669,13.7501678 15.1360245,13.6397324 14.9026108,13.5893326 C14.6691971,13.5389328 14.4016113,13.5137329 14.0998535,13.5137329 L11.6607513,13.5137329 C11.3637543,13.5137329 11.0985718,13.5389328 10.8652039,13.5893326 C10.6318359,13.6397324 10.4298706,13.7501678 10.2593079,13.920639 C10.0888367,14.0922089 9.97959137,14.2932358 9.93157196,14.5237198 C9.88355255,14.7542038 9.85954285,15.0184479 9.85954285,15.316452 L9.85954285,17.7540436 C9.85954285,18.0520477 9.88355255,18.3186951 9.93157196,18.5539856 C9.97959137,18.7892761 10.0888367,18.9897766 10.2593079,19.1554871 C10.4308777,19.3222961 10.6330948,19.4311523 10.8659592,19.4820557 C11.0988235,19.532959 11.3637543,19.5584106 11.6607513,19.5584106 L14.0998535,19.5584106 C14.4016113,19.5584106 14.6691971,19.532959 14.9026108,19.4820557 C15.1360245,19.4311523 15.3379669,19.3222961 15.5084381,19.1554871 C15.6752472,18.9897766 15.7826614,18.7892761 15.8306808,18.5539856 C15.8787003,18.3186951 15.90271,18.0520477 15.90271,17.7540436 L15.90271,15.316452 C15.90271,15.0184479 15.8787003,14.7530136 15.8306808,14.5201492 C15.7826614,14.2872849 15.6752472,14.0874481 15.5084381,13.920639 Z" id="Shape"></path>
        </g>
    </g>
</svg>