<?xml version="1.0" encoding="UTF-8"?>
<svg width="24px" height="24px" viewBox="0 0 24 24" version="1.1" xmlns="http://www.w3.org/2000/svg" xmlns:xlink="http://www.w3.org/1999/xlink">
    <title>books</title>
    <g id="books" stroke="none" stroke-width="1" fill="none" fill-rule="evenodd">
        <g id="book" transform="translate(2.000000, 4.000000)" fill="#000000" fill-rule="nonzero">
            <path d="M7.75935346,1.10498057 C6.25406265,0.371971622 4.15007189,0.012903472 1.33322408,3.24664285e-05 L1.33322408,3.24664285e-05 C1.06756651,-0.00352566104 0.80712161,0.0754826518 0.586619832,0.226644631 C0.219089643,0.480016425 -0.000804618705,0.903240652 0,1.35569087 L0,13.513016 C0,14.3348359 0.573287614,14.9548128 1.33322408,14.9548128 C4.29422651,14.9548128 7.26439484,15.2369681 9.04341276,16.9519965 C9.09315971,17.0001746 9.16629683,17.0134214 9.22926624,16.9856589 C9.29223565,16.9578964 9.33288198,16.8944837 9.33255721,16.8245167 L9.33255721,2.49960976 C9.33270249,2.30405909 9.24972054,2.11804752 9.10507428,1.98969049 C8.69757168,1.63437651 8.24491178,1.33678677 7.75935346,1.10498057 Z" id="Path"></path>
            <path d="M19.4117125,0.225369833 C19.1911015,0.0745841124 18.9306445,-0.00398316635 18.6651083,0 L18.6651083,0 C15.8482605,0.012903472 13.7442697,0.370271891 12.2389789,1.10498057 C11.7534455,1.33636671 11.3006662,1.63337116 10.8928415,1.98799076 C10.74853,2.11656304 10.6657771,2.30247525 10.6657771,2.49791003 L10.6657771,16.8236669 C10.6657771,16.8909157 10.7052482,16.9516284 10.7660249,16.977704 C10.8268016,17.0037796 10.8969837,16.99013 10.9440872,16.943073 C12.0135811,15.8594945 13.8905075,14.953538 18.6667748,14.9539629 C19.4030929,14.9539629 20,14.3451665 20,13.5941782 L20,1.3561158 C20.0009856,0.902743845 19.780367,0.47869092 19.4117125,0.225369833 Z" id="Path"></path>
        </g>
    </g>
</svg>