<?xml version="1.0" encoding="UTF-8"?>
<svg width="24px" height="24px" viewBox="0 0 24 24" version="1.1" xmlns="http://www.w3.org/2000/svg" xmlns:xlink="http://www.w3.org/1999/xlink">
    <title>changelog</title>
    <g id="changelog" stroke="none" stroke-width="1" fill="none" fill-rule="evenodd">
        <g id="notifications" transform="translate(3.500000, 2.000000)" fill="#000000" fill-rule="nonzero">
            <path d="M16.6426009,13.8084821 C16.5691734,13.7191964 16.4970729,13.6299107 16.4262994,13.54375 C15.4531638,12.3558036 14.8644168,11.6388393 14.8644168,8.27589286 C14.8644168,6.53482143 14.4517188,5.10625 13.6382659,4.03482143 C13.0384606,3.24330357 12.2276617,2.64285714 11.1589819,2.19910714 C11.1452298,2.19138636 11.1329481,2.18125838 11.1227105,2.16919643 C10.7383219,0.870089286 9.68645084,0 8.50011011,0 C7.31376937,0 6.26234062,0.870089286 5.87795207,2.16785714 C5.86769347,2.17947596 5.85558378,2.18928355 5.84212298,2.196875 C3.3482419,3.23303571 2.13624578,5.22098214 2.13624578,8.27455357 C2.13624578,11.6388393 1.54838342,12.3558036 0.57436318,13.5424107 C0.503589683,13.6285714 0.431489184,13.7160714 0.358061681,13.8071429 C-0.0292365293,14.2785401 -0.109538409,14.9342215 0.152376207,15.4866071 C0.425296503,16.0669643 1.00696618,16.4272321 1.67091004,16.4272321 L15.3341759,16.4272321 C15.9950234,16.4272321 16.572712,16.0674107 16.846517,15.4897321 C17.1095694,14.9371926 17.0299408,14.2806695 16.6426009,13.8084821 Z" id="Path"></path>
            <path d="M8.50011011,20 C9.80235168,19.9989369 10.9989509,19.2766294 11.6159133,18.1191964 C11.6449319,18.0638176 11.6430746,17.9971414 11.6110192,17.9434954 C11.5789638,17.8898494 11.5213987,17.8570798 11.4593269,17.8571418 L5.54177796,17.8571418 C5.47962745,17.8569227 5.4219197,17.8896296 5.38975699,17.9433036 C5.35759429,17.9969775 5.35569334,18.0637471 5.38474926,18.1191964 C6.00163633,19.2764885 7.19802725,19.9987728 8.50011011,20 L8.50011011,20 Z" id="Path"></path>
        </g>
    </g>
</svg>