<?xml version="1.0" encoding="UTF-8"?>
<svg width="24px" height="24px" viewBox="0 0 24 24" version="1.1" xmlns="http://www.w3.org/2000/svg" xmlns:xlink="http://www.w3.org/1999/xlink">
    <title>compass</title>
    <g id="compass" stroke="none" stroke-width="1" fill="none" fill-rule="evenodd">
        <g transform="translate(2.500000, 2.500000)" fill="#000000" fill-rule="nonzero">
            <circle id="Oval" cx="9.5" cy="9.5" r="1.09615385"></circle>
            <path d="M9.5,0 C4.26175481,0 0,4.26175481 0,9.5 C0,14.7382452 4.26175481,19 9.5,19 C14.7382452,19 19,14.7382452 19,9.5 C19,4.26175481 14.7382452,0 9.5,0 Z M14.2988702,5.17612981 L12.1577163,10.5290144 C11.8606108,11.2719464 11.2719464,11.8606108 10.5290144,12.1577163 L5.17612981,14.2988702 C5.04040341,14.3531982 4.88535863,14.3213934 4.78198264,14.2180174 C4.67860665,14.1146414 4.64680175,13.9595966 4.70112981,13.8238702 L6.84228365,8.47098558 C7.13938918,7.72805355 7.72805355,7.13938918 8.47098558,6.84228365 L13.8238702,4.70112981 C13.9595966,4.64680175 14.1146414,4.67860665 14.2180174,4.78198264 C14.3213934,4.88535863 14.3531982,5.04040341 14.2988702,5.17612981 L14.2988702,5.17612981 Z" id="Shape"></path>
        </g>
    </g>
</svg>