<?xml version="1.0" encoding="UTF-8"?>
<svg width="24px" height="24px" viewBox="0 0 24 24" version="1.1" xmlns="http://www.w3.org/2000/svg" xmlns:xlink="http://www.w3.org/1999/xlink">
    <title>deliverability</title>
    <g id="deliverability" stroke="none" stroke-width="1" fill="none" fill-rule="evenodd">
        <g id="􀈠" transform="translate(2.427693, 2.790253)" fill="#111111" fill-rule="nonzero">
            <path d="M11.1005859,18.6080933 C11.4385071,18.6080933 11.7276306,18.481041 11.9679565,18.2269363 C12.2082825,17.9728317 12.4104767,17.6342926 12.5745392,17.211319 L18.3732605,2.05403137 C18.4473267,1.85536194 18.5052567,1.67001343 18.5470505,1.49798584 C18.5888443,1.32595825 18.6097412,1.16537476 18.6097412,1.01623535 C18.6097412,0.702301025 18.5185776,0.454444885 18.3362503,0.272666931 C18.153923,0.0908889771 17.9057465,0 17.5917206,0 C17.4463348,0 17.286438,0.0206222534 17.11203,0.0618667603 C16.9376221,0.103111267 16.7516327,0.160766602 16.5540619,0.234832764 L1.33209229,6.06390381 C0.95223999,6.20773315 0.635261536,6.39981079 0.381156921,6.64013672 C0.127052307,6.88046265 0,7.16958618 0,7.50750732 C0,7.92681885 0.14037323,8.23416138 0.42111969,8.42953491 C0.70186615,8.62490845 1.05802917,8.78865051 1.48960876,8.92076111 L6.04399109,10.3105316 C6.35096741,10.4070282 6.60710907,10.4447479 6.81241608,10.4236908 C7.01772308,10.4026337 7.22937012,10.2935028 7.44735718,10.0962982 L17.2308197,1.02626038 C17.2889557,0.970321655 17.3514633,0.94354248 17.4183426,0.945922852 C17.4852219,0.948303223 17.5431976,0.97215271 17.5922699,1.01747131 C17.640152,1.06169128 17.6646423,1.11845398 17.665741,1.1877594 C17.6668396,1.25706482 17.6388702,1.32073975 17.5818329,1.37878418 L8.54214478,11.1813354 C8.35391235,11.3843994 8.24647522,11.5911484 8.21983337,11.8015823 C8.19319153,12.0120163 8.22463989,12.2717743 8.31417847,12.5808563 L9.67140198,17.0506439 C9.80351257,17.4965057 9.96871948,17.8675461 10.1670227,18.163765 C10.3653259,18.4599838 10.6765137,18.6080933 11.1005859,18.6080933 Z" id="Path"></path>
        </g>
    </g>
</svg>