<?xml version="1.0" encoding="UTF-8"?>
<svg width="24px" height="24px" viewBox="0 0 24 24" version="1.1" xmlns="http://www.w3.org/2000/svg" xmlns:xlink="http://www.w3.org/1999/xlink">
    <title>docs</title>
    <g id="docs" stroke="none" stroke-width="1" fill="none" fill-rule="evenodd">
        <g id="reader" transform="translate(4.000000, 2.000000)" fill="#000000" fill-rule="nonzero">
            <path d="M13.0909091,0 L2.90909091,0 C1.30317129,0.00172228488 0.00175359916,1.27990037 0,2.85714286 L0,17.1428571 C0.00175359916,18.7200996 1.30317129,19.9982777 2.90909091,20 L13.0909091,20 C14.6968287,19.9982777 15.9982464,18.7200996 16,17.1428571 L16,2.85714286 C15.9982464,1.27990037 14.6968287,0.00172228488 13.0909091,0 Z M8,12.1428571 L4.36363636,12.1428571 C3.96197473,12.1428571 3.63636364,11.8230605 3.63636364,11.4285714 C3.63636364,11.0340823 3.96197473,10.7142857 4.36363636,10.7142857 L8,10.7142857 C8.40166164,10.7142857 8.72727273,11.0340823 8.72727273,11.4285714 C8.72727273,11.8230605 8.40166164,12.1428571 8,12.1428571 Z M11.6363636,8.57142857 L4.36363636,8.57142857 C3.96197473,8.57142857 3.63636364,8.25163196 3.63636364,7.85714286 C3.63636364,7.46265375 3.96197473,7.14285714 4.36363636,7.14285714 L11.6363636,7.14285714 C12.0380253,7.14285714 12.3636364,7.46265375 12.3636364,7.85714286 C12.3636364,8.25163196 12.0380253,8.57142857 11.6363636,8.57142857 Z M11.6363636,5 L4.36363636,5 C3.96197473,5 3.63636364,4.68020339 3.63636364,4.28571429 C3.63636364,3.89122518 3.96197473,3.57142857 4.36363636,3.57142857 L11.6363636,3.57142857 C12.0380253,3.57142857 12.3636364,3.89122518 12.3636364,4.28571429 C12.3636364,4.68020339 12.0380253,5 11.6363636,5 Z" id="Shape"></path>
        </g>
    </g>
</svg>