<?xml version="1.0" encoding="UTF-8"?>
<svg width="24px" height="24px" viewBox="0 0 24 24" version="1.1" xmlns="http://www.w3.org/2000/svg" xmlns:xlink="http://www.w3.org/1999/xlink">
    <title>mergetags</title>
    <g id="mergetags" stroke="none" stroke-width="1" fill="none" fill-rule="evenodd">
        <g id="Group" transform="translate(2.000000, 2.000000)" fill="#000000" fill-rule="nonzero">
            <path d="M20,14.5421495 C20,17.5505567 17.5551011,19.9954556 14.5466939,19.9954556 L14.5466939,18.6321291 C16.8189048,18.6321291 18.6366735,16.8143604 18.6366735,14.5421495 L20,14.5421495 M0.00454442173,5.45330607 C0.00454442173,2.44489889 2.44944331,0 5.45785049,0 L5.45785049,1.36332652 C3.18563963,1.36332652 1.36787094,3.18109521 1.36787094,5.45330607 L0.00454442173,5.45330607 M6.36673483,3.01749602 L2.19495569,7.19836401 C-0.731651897,10.1249716 -0.731651897,14.8784367 2.19495569,17.8050443 C5.12156328,20.7316519 9.8750284,20.7316519 12.801636,17.8050443 L19.2274483,11.3610543 C19.6728016,10.9338787 19.6728016,10.21586 19.2274483,9.7705067 C19.0143052,9.55682413 18.7248972,9.43673305 18.4230857,9.43673305 C18.1212741,9.43673305 17.8318661,9.55682413 17.618723,9.7705067 L13.6014542,13.7877755 L12.9561463,13.1424676 L18.9002499,7.19836401 C19.3456033,6.75301068 19.3456033,6.03499205 18.9002499,5.58963872 C18.4548966,5.14428539 17.7277891,5.14428539 17.273347,5.58963872 L11.9927289,10.9066121 L11.3655987,10.2431266 L17.6096342,3.98091343 C18.0549875,3.5355601 18.0549875,2.81754147 17.6096342,2.37218814 C17.1642808,1.92683481 16.4462622,1.92683481 16.0009089,2.37218814 L9.73869575,8.63440127 L9.09338787,7.99818223 L14.0922518,3.01749602 C14.5466939,2.57214269 14.5466939,1.85412406 14.0922518,1.40877073 C13.6378096,0.963417405 12.9288798,0.963417405 12.4835265,1.40877073 L5.55782777,8.33446944 C6.67973446,9.78165791 6.5512665,11.8371451 5.25789593,13.1333788 L4.61258805,12.4880709 C5.67581324,11.4235218 5.67581324,9.69895041 4.61258805,8.63440127 L4.29447853,8.31629175 L7.99363781,4.61713247 C8.43899114,4.17177914 8.43899114,3.45376051 7.99363781,3.00840718 C7.53919564,2.57214269 6.82117701,2.57214269 6.36673483,3.01749602 Z" id="Shape"></path>
        </g>
    </g>
</svg>