<?xml version="1.0" encoding="UTF-8"?>
<svg width="24px" height="24px" viewBox="0 0 24 24" version="1.1" xmlns="http://www.w3.org/2000/svg" xmlns:xlink="http://www.w3.org/1999/xlink">
    <title>automation copy</title>
    <g id="automation-copy" stroke="none" stroke-width="1" fill="none" fill-rule="evenodd">
        <g id="ô€œ" transform="translate(2.425707, 2.575195)" fill="#111111" fill-rule="nonzero">
            <path d="M6.8203125,17.9208984 C7.01953125,17.9208984 7.13085938,17.8154297 7.15429688,17.6044922 C7.22460938,17.0126953 7.29931641,16.5483398 7.37841797,16.2114258 C7.45751953,15.8745117 7.58496094,15.6196289 7.76074219,15.4467773 C7.93652344,15.2739258 8.19580078,15.1435547 8.53857422,15.0556641 C8.88134766,14.9677734 9.35742188,14.8769531 9.96679688,14.7832031 C10.1953125,14.7480469 10.3095703,14.6337891 10.3095703,14.4404297 C10.3095703,14.2529297 10.2070312,14.1386719 10.0019531,14.0976562 C9.39257812,13.9863281 8.91210938,13.8837891 8.56054688,13.7900391 C8.20898438,13.6962891 7.94384766,13.5673828 7.76513672,13.4033203 C7.58642578,13.2392578 7.45751953,12.9916992 7.37841797,12.6606445 C7.29931641,12.3295898 7.22460938,11.8710938 7.15429688,11.2851562 C7.13085938,11.0683594 7.01953125,10.9599609 6.8203125,10.9599609 C6.61523438,10.9599609 6.50097656,11.0654297 6.47753906,11.2763672 C6.40136719,11.8798828 6.32226562,12.3515625 6.24023438,12.6914062 C6.15820312,13.03125 6.03076172,13.2890625 5.85791016,13.4648438 C5.68505859,13.640625 5.42285156,13.7709961 5.07128906,13.855957 C4.71972656,13.940918 4.23925781,14.0214844 3.62988281,14.0976562 C3.54199219,14.1152344 3.46728516,14.1533203 3.40576172,14.2119141 C3.34423828,14.2705078 3.31347656,14.3466797 3.31347656,14.4404297 C3.31347656,14.6279297 3.41601562,14.7421875 3.62109375,14.7832031 C4.23632812,14.9003906 4.71972656,15.0058594 5.07128906,15.0996094 C5.42285156,15.1933594 5.68505859,15.3251953 5.85791016,15.4951172 C6.03076172,15.6650391 6.15673828,15.9140625 6.23583984,16.2421875 C6.31494141,16.5703125 6.39550781,17.0302734 6.47753906,17.6220703 C6.48339844,17.7099609 6.51855469,17.7817383 6.58300781,17.8374023 C6.64746094,17.8930664 6.7265625,17.9208984 6.8203125,17.9208984 Z M2.58398438,10.1689453 C2.72460938,10.1689453 2.80664062,10.0927734 2.83007813,9.94042969 C2.90625,9.51269531 2.97509766,9.17578125 3.03662109,8.9296875 C3.09814453,8.68359375 3.19189453,8.49462891 3.31787109,8.36279297 C3.44384766,8.23095703 3.6328125,8.12988281 3.88476562,8.05957031 C4.13671875,7.98925781 4.48828125,7.91601562 4.93945312,7.83984375 C5.09765625,7.81054688 5.17675781,7.72558594 5.17675781,7.58496094 C5.17675781,7.44433594 5.09765625,7.359375 4.93945312,7.33007812 C4.48828125,7.25390625 4.13671875,7.17773438 3.88476562,7.1015625 C3.6328125,7.02539062 3.4453125,6.92285156 3.32226562,6.79394531 C3.19921875,6.66503906 3.10546875,6.47900391 3.04101562,6.23583984 C2.9765625,5.99267578 2.90625,5.65722656 2.83007813,5.22949219 C2.80664062,5.07714844 2.72460938,5.00097656 2.58398438,5.00097656 C2.44335938,5.00097656 2.36132812,5.07714844 2.33789062,5.22949219 C2.26171875,5.66308594 2.19287109,6.00292969 2.13134766,6.24902344 C2.06982422,6.49511719 1.97607422,6.68261719 1.85009766,6.81152344 C1.72412109,6.94042969 1.53515625,7.04003906 1.28320312,7.11035156 C1.03125,7.18066406 0.6796875,7.25390625 0.228515625,7.33007812 C0.076171875,7.359375 0,7.44433594 0,7.58496094 C0,7.72558594 0.076171875,7.81054688 0.228515625,7.83984375 C0.6796875,7.921875 1.02978516,7.99804688 1.27880859,8.06835938 C1.52783203,8.13867188 1.71533203,8.23974609 1.84130859,8.37158203 C1.96728516,8.50341797 2.0625,8.69238281 2.12695312,8.93847656 C2.19140625,9.18457031 2.26171875,9.51855469 2.33789062,9.94042969 C2.34960938,10.0048828 2.37597656,10.059082 2.41699219,10.1030273 C2.45800781,10.1469727 2.51367188,10.1689453 2.58398438,10.1689453 Z M7.42675781,4.41210938 C7.54394531,4.41210938 7.61425781,4.34765625 7.63769531,4.21875 C7.71386719,3.85546875 7.77978516,3.56982422 7.83544922,3.36181641 C7.89111328,3.15380859 7.97167969,2.99560547 8.07714844,2.88720703 C8.18261719,2.77880859 8.34082031,2.69384766 8.55175781,2.63232422 C8.76269531,2.57080078 9.05566406,2.49902344 9.43066406,2.41699219 C9.56542969,2.39941406 9.6328125,2.32910156 9.6328125,2.20605469 C9.6328125,2.08886719 9.56835938,2.01855469 9.43945312,1.99511719 C9.05859375,1.91308594 8.76123047,1.84130859 8.54736328,1.77978516 C8.33349609,1.71826172 8.17382812,1.63183594 8.06835938,1.52050781 C7.96289062,1.40917969 7.88378906,1.25244141 7.83105469,1.05029297 C7.77832031,0.848144531 7.71386719,0.565429688 7.63769531,0.202148438 C7.61425781,0.0673828125 7.54394531,0 7.42675781,0 C7.30957031,0 7.23925781,0.0673828125 7.21582031,0.202148438 C7.14550781,0.565429688 7.08105469,0.851074219 7.02246094,1.05908203 C6.96386719,1.26708984 6.88183594,1.42675781 6.77636719,1.53808594 C6.67089844,1.64941406 6.51416016,1.734375 6.30615234,1.79296875 C6.09814453,1.8515625 5.80078125,1.91894531 5.4140625,1.99511719 C5.28515625,2.01855469 5.22070312,2.08886719 5.22070312,2.20605469 C5.22070312,2.32324219 5.28515625,2.39355469 5.4140625,2.41699219 C5.80078125,2.49902344 6.09960938,2.57080078 6.31054688,2.63232422 C6.52148438,2.69384766 6.6796875,2.78027344 6.78515625,2.89160156 C6.890625,3.00292969 6.97119141,3.16113281 7.02685547,3.36621094 C7.08251953,3.57128906 7.14550781,3.85546875 7.21582031,4.21875 C7.23925781,4.34765625 7.30957031,4.41210938 7.42675781,4.41210938 Z M14.9326172,7.54101562 C15.0732422,7.54101562 15.1552734,7.46484375 15.1787109,7.3125 C15.2607422,6.88476562 15.3339844,6.54785156 15.3984375,6.30175781 C15.4628906,6.05566406 15.5566406,5.86669922 15.6796875,5.73486328 C15.8027344,5.60302734 15.9887695,5.50195312 16.237793,5.43164062 C16.4868164,5.36132812 16.8369141,5.28515625 17.2880859,5.203125 C17.4462891,5.1796875 17.5253906,5.09765625 17.5253906,4.95703125 C17.5253906,4.81640625 17.4462891,4.73144531 17.2880859,4.70214844 C16.8427734,4.62011719 16.4926758,4.54394531 16.237793,4.47363281 C15.9829102,4.40332031 15.7924805,4.30224609 15.6665039,4.17041016 C15.5405273,4.03857422 15.4467773,3.85107422 15.3852539,3.60791016 C15.3237305,3.36474609 15.2548828,3.02929688 15.1787109,2.6015625 C15.1552734,2.44921875 15.0732422,2.37304688 14.9326172,2.37304688 C14.7919922,2.37304688 14.7099609,2.44921875 14.6865234,2.6015625 C14.6103516,3.02929688 14.5400391,3.36767578 14.4755859,3.61669922 C14.4111328,3.86572266 14.3173828,4.05615234 14.1943359,4.18798828 C14.0712891,4.31982422 13.8837891,4.42089844 13.6318359,4.49121094 C13.3798828,4.56152344 13.03125,4.63183594 12.5859375,4.70214844 C12.515625,4.71386719 12.4584961,4.74169922 12.4145508,4.78564453 C12.3706055,4.82958984 12.3486328,4.88671875 12.3486328,4.95703125 C12.3486328,5.09765625 12.4248047,5.1796875 12.5771484,5.203125 C13.0283203,5.28515625 13.3798828,5.36279297 13.6318359,5.43603516 C13.8837891,5.50927734 14.0727539,5.61035156 14.1987305,5.73925781 C14.324707,5.86816406 14.418457,6.05566406 14.4799805,6.30175781 C14.5415039,6.54785156 14.6103516,6.88476562 14.6865234,7.3125 C14.7099609,7.46484375 14.7919922,7.54101562 14.9326172,7.54101562 Z M17.6308594,17.7011719 C17.8417969,17.9179688 18.1040039,18.0263672 18.4174805,18.0263672 C18.730957,18.0263672 18.9931641,17.9179688 19.2041016,17.7011719 C19.4150391,17.4785156 19.519043,17.2163086 19.5161735,16.9145508 C19.5131836,16.612793 19.4091797,16.3535156 19.2041016,16.1367188 L10.8457031,7.74316406 C10.640625,7.52636719 10.3798828,7.41796875 10.0634766,7.41796875 C9.74707031,7.41796875 9.48632812,7.52636719 9.28125,7.74316406 C9.0703125,7.96582031 8.96484375,8.22949219 8.96484375,8.53417969 C8.96484375,8.83886719 9.0703125,9.09960938 9.28125,9.31640625 L17.6308594,17.7011719 Z M12.65625,11.6191406 L10.0195312,8.97363281 C9.93164062,8.88574219 9.87744141,8.79199219 9.85693359,8.69238281 C9.83642578,8.59277344 9.87011719,8.49902344 9.95800781,8.41113281 C10.0341797,8.33496094 10.1235352,8.30566406 10.2260742,8.32324219 C10.3286133,8.34082031 10.4267578,8.39648438 10.5205078,8.49023438 L13.1572266,11.1269531 L12.65625,11.6191406 Z" id="Shape"></path>
        </g>
    </g>
</svg>