<?xml version="1.0" encoding="UTF-8"?>
<svg width="24px" height="24px" viewBox="0 0 24 24" version="1.1" xmlns="http://www.w3.org/2000/svg" xmlns:xlink="http://www.w3.org/1999/xlink">
    <title>sla</title>
    <g id="sla" stroke="none" stroke-width="1" fill="none" fill-rule="evenodd">
        <g id="Group">
            <path d="M24,0 L24,24 L0,24 L0,0 L24,0 Z M12.593,23.258 L12.582,23.26 L12.511,23.295 L12.491,23.299 L12.477,23.295 L12.406,23.26 C12.396,23.256 12.387,23.259 12.382,23.265 L12.378,23.275 L12.361,23.703 L12.366,23.723 L12.376,23.736 L12.48,23.81 L12.495,23.814 L12.507,23.81 L12.611,23.736 L12.623,23.72 L12.627,23.703 L12.61,23.276 C12.608,23.266 12.601,23.259 12.593,23.258 L12.593,23.258 Z M12.858,23.145 L12.845,23.147 L12.66,23.24 L12.65,23.25 L12.647,23.261 L12.665,23.691 L12.67,23.703 L12.678,23.71 L12.879,23.803 C12.891,23.807 12.902,23.803 12.908,23.795 L12.912,23.781 L12.878,23.167 C12.875,23.155 12.868,23.147 12.858,23.145 L12.858,23.145 Z M12.143,23.147 C12.1336684,23.1427606 12.1226578,23.1452075 12.116,23.153 L12.11,23.167 L12.076,23.781 C12.076,23.793 12.083,23.801 12.093,23.805 L12.108,23.803 L12.309,23.71 L12.319,23.702 L12.323,23.691 L12.34,23.261 L12.337,23.249 L12.327,23.239 L12.143,23.147 L12.143,23.147 Z" id="Shape"></path>
            <path d="M10.586,2.1 C11.319803,1.36715418 12.4920465,1.31679113 13.286,1.984 L13.414,2.101 L15.314,4 L18,4 C19.0462401,4.00019202 19.915532,4.80670657 19.994,5.85 L20,6 L20,8.686 L21.9,10.586 C22.6334505,11.3199342 22.6838252,12.4928851 22.016,13.287 L21.899,13.414 L19.999,15.314 L19.999,18 C19.9993312,19.0466248 19.192677,19.9165032 18.149,19.995 L18,20 L15.315,20 L13.415,21.9 C12.6810658,22.6334505 11.5081149,22.6838252 10.714,22.016 L10.587,21.9 L8.687,20 L6,20 C4.95337524,20.0003312 4.08349681,19.193677 4.005,18.15 L4,18 L4,15.314 L2.1,13.414 C1.36654955,12.6800658 1.31617476,11.5071149 1.984,10.713 L2.1,10.586 L4,8.686 L4,6 C4.00019202,4.95375989 4.80670657,4.08446799 5.85,4.006 L6,4 L8.686,4 L10.586,2.1 Z M15.079,8.983 L10.835,13.227 L9.067,11.459 C8.67625854,11.0685347 8.04296532,11.0687585 7.6525,11.4595 C7.26203468,11.8502415 7.26225854,12.4835347 7.653,12.874 L10.057,15.278 C10.2633048,15.4844017 10.5431724,15.6003651 10.835,15.6003651 C11.1268276,15.6003651 11.4066952,15.4844017 11.613,15.278 L16.493,10.397 C16.8719722,10.0046211 16.8665524,9.38091522 16.4808186,8.99518142 C16.0950848,8.60944763 15.4713789,8.60402779 15.079,8.983 L15.079,8.983 Z" id="Shape" fill="#000000" fill-rule="nonzero"></path>
        </g>
    </g>
</svg>