<?xml version="1.0" encoding="UTF-8"?>
<svg width="24px" height="24px" viewBox="0 0 24 24" version="1.1" xmlns="http://www.w3.org/2000/svg" xmlns:xlink="http://www.w3.org/1999/xlink">
    <title>support</title>
    <g id="support" stroke="none" stroke-width="1" fill="none" fill-rule="evenodd">
        <g id="ôŒ·" transform="translate(2.848172, 3.832031)" fill="#111111" fill-rule="nonzero">
            <path d="M4.95703125,17.4199219 C5.12695312,17.4199219 5.28369141,17.3774414 5.42724609,17.2924805 C5.57080078,17.2075195 5.74511719,17.0712891 5.95019531,16.8837891 L8.99121094,14.1328125 L14.5195312,14.1328125 C15.3457031,14.1328125 16.0458984,13.9819336 16.6201172,13.6801758 C17.1943359,13.378418 17.6308594,12.9404297 17.9296875,12.3662109 C18.2285156,11.7919922 18.3779297,11.0947266 18.3779297,10.2744141 L18.3779297,3.8671875 C18.3779297,3.046875 18.2285156,2.34960938 17.9296875,1.77539062 C17.6308594,1.20117188 17.1943359,0.76171875 16.6201172,0.45703125 C16.0458984,0.15234375 15.3457031,0 14.5195312,0 L3.85839844,0 C3.03222656,0 2.33203125,0.150878906 1.7578125,0.452636719 C1.18359375,0.754394531 0.747070312,1.19384766 0.448242188,1.77099609 C0.149414063,2.34814453 0,3.046875 0,3.8671875 L0,10.2744141 C0,11.0947266 0.150878906,11.7919922 0.452636719,12.3662109 C0.754394531,12.9404297 1.19091797,13.378418 1.76220703,13.6801758 C2.33349609,13.9819336 3.0234375,14.1328125 3.83203125,14.1328125 L4.19238281,14.1328125 L4.19238281,16.5410156 C4.19238281,16.8105469 4.25976562,17.0244141 4.39453125,17.1826172 C4.52929688,17.3408203 4.71679688,17.4199219 4.95703125,17.4199219 Z M9.01757812,8.81542969 C8.5078125,8.81542969 8.25292969,8.578125 8.25292969,8.10351562 C8.25292969,8.0859375 8.25292969,8.06835938 8.25292969,8.05078125 C8.25292969,8.03320312 8.25292969,8.015625 8.25292969,7.99804688 C8.25292969,7.59375 8.35400391,7.265625 8.55615234,7.01367188 C8.75830078,6.76171875 9.01171875,6.52734375 9.31640625,6.31054688 C9.68554688,6.05273438 9.9609375,5.83300781 10.1425781,5.65136719 C10.3242188,5.46972656 10.4150391,5.23828125 10.4150391,4.95703125 C10.4150391,4.64648438 10.3037109,4.39599609 10.0810547,4.20556641 C9.85839844,4.01513672 9.56542969,3.91992188 9.20214844,3.91992188 C8.93261719,3.91992188 8.69238281,3.984375 8.48144531,4.11328125 C8.27050781,4.2421875 8.08886719,4.42675781 7.93652344,4.66699219 L7.79589844,4.86035156 C7.71386719,4.96582031 7.61865234,5.05078125 7.51025391,5.11523438 C7.40185547,5.1796875 7.27148438,5.21191406 7.11914062,5.21191406 C6.9609375,5.21191406 6.81591797,5.15625 6.68408203,5.04492188 C6.55224609,4.93359375 6.48632812,4.77539062 6.48632812,4.5703125 C6.48632812,4.49414062 6.49365234,4.41943359 6.50830078,4.34619141 C6.52294922,4.27294922 6.5390625,4.20410156 6.55664062,4.13964844 C6.69140625,3.73535156 6.99462891,3.38671875 7.46630859,3.09375 C7.93798828,2.80078125 8.54296875,2.65429688 9.28125,2.65429688 C9.77929688,2.65429688 10.2407227,2.73925781 10.6655273,2.90917969 C11.090332,3.07910156 11.4301758,3.32958984 11.6850586,3.66064453 C11.9399414,3.99169922 12.0673828,4.40039062 12.0673828,4.88671875 C12.0673828,5.390625 11.9384766,5.79052734 11.6806641,6.08642578 C11.4228516,6.38232422 11.0800781,6.67089844 10.6523438,6.95214844 C10.3652344,7.13964844 10.1484375,7.31835938 10.0019531,7.48828125 C9.85546875,7.65820312 9.77929688,7.86035156 9.7734375,8.09472656 C9.76757812,8.10644531 9.76464844,8.12109375 9.76464844,8.13867188 C9.76464844,8.15625 9.76464844,8.17382812 9.76464844,8.19140625 C9.75878906,8.3671875 9.68847656,8.51513672 9.55371094,8.63525391 C9.41894531,8.75537109 9.24023438,8.81542969 9.01757812,8.81542969 Z M9,11.4257812 C8.73046875,11.4257812 8.49902344,11.3364258 8.30566406,11.1577148 C8.11230469,10.9790039 8.015625,10.7607422 8.015625,10.5029297 C8.015625,10.2451172 8.11230469,10.0253906 8.30566406,9.84375 C8.49902344,9.66210938 8.73046875,9.57128906 9,9.57128906 C9.26953125,9.57128906 9.49951172,9.66064453 9.68994141,9.83935547 C9.88037109,10.0180664 9.97558594,10.2392578 9.97558594,10.5029297 C9.97558594,10.7666016 9.87890625,10.9863281 9.68554688,11.1621094 C9.4921875,11.3378906 9.26367188,11.4257812 9,11.4257812 Z" id="Shape"></path>
        </g>
    </g>
</svg>