<?xml version="1.0" encoding="UTF-8"?>
<svg width="24px" height="24px" viewBox="0 0 24 24" version="1.1" xmlns="http://www.w3.org/2000/svg" xmlns:xlink="http://www.w3.org/1999/xlink">
    <title>webflow</title>
    <g id="webflow" stroke="none" stroke-width="1" fill="none" fill-rule="evenodd">
        <g id="Group" transform="translate(2.000000, 5.000000)" fill="#000000" fill-rule="nonzero">
            <path d="M15.57675,4.10064407 C15.57675,4.10064407 13.874,9.24372479 13.734875,9.66845242 C13.3060922,6.44513155 12.8732585,3.22231172 12.436375,3.74239989e-16 C9.534875,3.74239989e-16 7.9835,1.98880395 7.163625,4.08800337 L4.91925,9.68109312 C4.906125,9.27996148 4.60425,4.14867875 4.60425,4.14867875 C4.42575,1.57671703 1.97925,0.010955276 0,0.010955276 L2.396625,14 C5.436375,13.9873593 7.07525,12.0103533 7.933625,9.91115392 C7.933625,9.91115392 9.762375,5.36218624 9.837625,5.15572142 C9.85075,5.34954554 11.150125,13.9991573 11.150125,13.9991573 C14.202125,13.9991573 15.841875,12.1435021 16.723875,10.1176187 L21,0.0117979895 C17.985625,0.0117979895 16.396625,1.98880395 15.57675,4.09980136 L15.57675,4.10064407 Z" id="Path"></path>
        </g>
    </g>
</svg>